<mxfile host="app.diagrams.net" modified="2023-10-03T11:39:54.527Z" agent="Mozilla/5.0 (Windows NT 10.0; Win64; x64) AppleWebKit/537.36 (KHTML, like Gecko) Chrome/117.0.0.0 Safari/537.36" etag="4RNyXJ7cfVVqjZpAf2F8" version="21.7.4" type="device">
  <diagram name="Page-1" id="mz0K3IEcQmQy3VDoT_oy">
    <mxGraphModel dx="988" dy="593" grid="1" gridSize="10" guides="1" tooltips="1" connect="1" arrows="1" fold="1" page="1" pageScale="1" pageWidth="850" pageHeight="1100" math="0" shadow="0">
      <root>
        <mxCell id="0" />
        <mxCell id="1" parent="0" />
        <mxCell id="kUE7Anu8ZaF_NScLpF4x-4" value="" style="group" vertex="1" connectable="0" parent="1">
          <mxGeometry x="30" y="10" width="310" height="310" as="geometry" />
        </mxCell>
        <mxCell id="kUE7Anu8ZaF_NScLpF4x-2" value="" style="whiteSpace=wrap;html=1;aspect=fixed;movable=1;resizable=1;rotatable=1;deletable=1;editable=1;locked=0;connectable=1;" vertex="1" parent="kUE7Anu8ZaF_NScLpF4x-4">
          <mxGeometry width="310" height="310" as="geometry" />
        </mxCell>
        <mxCell id="kUE7Anu8ZaF_NScLpF4x-3" value="Compilation unit of main.cpp" style="rounded=0;whiteSpace=wrap;html=1;movable=1;resizable=1;rotatable=1;deletable=1;editable=1;locked=0;connectable=1;" vertex="1" parent="kUE7Anu8ZaF_NScLpF4x-4">
          <mxGeometry x="55" y="20" width="200" height="60" as="geometry" />
        </mxCell>
        <mxCell id="kUE7Anu8ZaF_NScLpF4x-5" value="Definitions:&lt;br&gt;&lt;b&gt;int main()&lt;/b&gt;" style="rounded=0;whiteSpace=wrap;html=1;" vertex="1" parent="kUE7Anu8ZaF_NScLpF4x-4">
          <mxGeometry x="55" y="100" width="205" height="60" as="geometry" />
        </mxCell>
        <mxCell id="kUE7Anu8ZaF_NScLpF4x-6" value="References to external functions (declared, but not defined):&lt;br&gt;&lt;b&gt;int f(int);&lt;br&gt;float b(float);&lt;/b&gt;" style="rounded=0;whiteSpace=wrap;html=1;" vertex="1" parent="kUE7Anu8ZaF_NScLpF4x-4">
          <mxGeometry x="55" y="170" width="205" height="60" as="geometry" />
        </mxCell>
        <mxCell id="kUE7Anu8ZaF_NScLpF4x-7" value="" style="group" vertex="1" connectable="0" parent="1">
          <mxGeometry x="360" y="10" width="310" height="310" as="geometry" />
        </mxCell>
        <mxCell id="kUE7Anu8ZaF_NScLpF4x-8" value="" style="whiteSpace=wrap;html=1;aspect=fixed;movable=1;resizable=1;rotatable=1;deletable=1;editable=1;locked=0;connectable=1;" vertex="1" parent="kUE7Anu8ZaF_NScLpF4x-7">
          <mxGeometry width="310" height="310" as="geometry" />
        </mxCell>
        <mxCell id="kUE7Anu8ZaF_NScLpF4x-9" value="Compilation unit of f.cpp" style="rounded=0;whiteSpace=wrap;html=1;movable=1;resizable=1;rotatable=1;deletable=1;editable=1;locked=0;connectable=1;" vertex="1" parent="kUE7Anu8ZaF_NScLpF4x-7">
          <mxGeometry x="55" y="20" width="200" height="60" as="geometry" />
        </mxCell>
        <mxCell id="kUE7Anu8ZaF_NScLpF4x-10" value="Definitions:&lt;br&gt;&lt;b&gt;int f(int);&lt;br&gt;float b(float);&lt;/b&gt;" style="rounded=0;whiteSpace=wrap;html=1;" vertex="1" parent="kUE7Anu8ZaF_NScLpF4x-7">
          <mxGeometry x="55" y="100" width="205" height="60" as="geometry" />
        </mxCell>
        <mxCell id="kUE7Anu8ZaF_NScLpF4x-11" value="References to external functions (declared, but not defined):&lt;br&gt;&lt;b&gt;none&lt;/b&gt;" style="rounded=0;whiteSpace=wrap;html=1;" vertex="1" parent="kUE7Anu8ZaF_NScLpF4x-7">
          <mxGeometry x="55" y="170" width="205" height="60" as="geometry" />
        </mxCell>
        <mxCell id="kUE7Anu8ZaF_NScLpF4x-18" value="" style="group" vertex="1" connectable="0" parent="1">
          <mxGeometry x="90" y="343.7" width="263.35" height="176.3" as="geometry" />
        </mxCell>
        <mxCell id="kUE7Anu8ZaF_NScLpF4x-12" value="" style="ellipse;whiteSpace=wrap;html=1;aspect=fixed;" vertex="1" parent="kUE7Anu8ZaF_NScLpF4x-18">
          <mxGeometry y="6.300000000000011" width="170" height="170" as="geometry" />
        </mxCell>
        <mxCell id="kUE7Anu8ZaF_NScLpF4x-14" value="" style="curved=1;endArrow=classic;html=1;rounded=0;exitX=1;exitY=0.5;exitDx=0;exitDy=0;" edge="1" parent="kUE7Anu8ZaF_NScLpF4x-18" source="kUE7Anu8ZaF_NScLpF4x-17">
          <mxGeometry width="50" height="50" relative="1" as="geometry">
            <mxPoint x="110.00000000000009" y="188.89000000000004" as="sourcePoint" />
            <mxPoint x="240" y="146.3" as="targetPoint" />
            <Array as="points">
              <mxPoint x="240.85000000000002" y="86.3" />
            </Array>
          </mxGeometry>
        </mxCell>
        <mxCell id="kUE7Anu8ZaF_NScLpF4x-16" value="&lt;b&gt;f?&lt;/b&gt;" style="rounded=0;whiteSpace=wrap;html=1;" vertex="1" parent="kUE7Anu8ZaF_NScLpF4x-18">
          <mxGeometry x="37.5" y="36.30000000000001" width="95" height="30" as="geometry" />
        </mxCell>
        <mxCell id="kUE7Anu8ZaF_NScLpF4x-17" value="&lt;b&gt;b?&lt;/b&gt;" style="rounded=0;whiteSpace=wrap;html=1;" vertex="1" parent="kUE7Anu8ZaF_NScLpF4x-18">
          <mxGeometry x="37.5" y="86.30000000000001" width="95" height="30" as="geometry" />
        </mxCell>
        <mxCell id="kUE7Anu8ZaF_NScLpF4x-19" value="" style="curved=1;endArrow=classic;html=1;rounded=0;exitX=1;exitY=0.5;exitDx=0;exitDy=0;" edge="1" parent="kUE7Anu8ZaF_NScLpF4x-18">
          <mxGeometry width="50" height="50" relative="1" as="geometry">
            <mxPoint x="132.5" y="51" as="sourcePoint" />
            <mxPoint x="270" y="16.30000000000001" as="targetPoint" />
            <Array as="points">
              <mxPoint x="240.35000000000002" y="36.30000000000001" />
            </Array>
          </mxGeometry>
        </mxCell>
        <mxCell id="kUE7Anu8ZaF_NScLpF4x-44" value="&lt;b&gt;main&lt;/b&gt;" style="rounded=0;whiteSpace=wrap;html=1;" vertex="1" parent="kUE7Anu8ZaF_NScLpF4x-18">
          <mxGeometry x="45" y="126.3" width="80" height="33.7" as="geometry" />
        </mxCell>
        <mxCell id="kUE7Anu8ZaF_NScLpF4x-45" value="" style="endArrow=classic;html=1;rounded=0;entryX=1;entryY=0.25;entryDx=0;entryDy=0;" edge="1" parent="kUE7Anu8ZaF_NScLpF4x-18" target="kUE7Anu8ZaF_NScLpF4x-44">
          <mxGeometry width="50" height="50" relative="1" as="geometry">
            <mxPoint x="190" y="166.3" as="sourcePoint" />
            <mxPoint x="190" y="156.3" as="targetPoint" />
          </mxGeometry>
        </mxCell>
        <mxCell id="kUE7Anu8ZaF_NScLpF4x-20" value="" style="ellipse;whiteSpace=wrap;html=1;aspect=fixed;" vertex="1" parent="1">
          <mxGeometry x="500" y="360" width="160" height="160" as="geometry" />
        </mxCell>
        <mxCell id="kUE7Anu8ZaF_NScLpF4x-21" value="&lt;b&gt;f&lt;/b&gt;" style="rounded=0;whiteSpace=wrap;html=1;" vertex="1" parent="1">
          <mxGeometry x="530" y="390" width="100" height="40" as="geometry" />
        </mxCell>
        <mxCell id="kUE7Anu8ZaF_NScLpF4x-22" value="&lt;b&gt;b&lt;/b&gt;" style="rounded=0;whiteSpace=wrap;html=1;" vertex="1" parent="1">
          <mxGeometry x="530" y="440" width="100" height="40" as="geometry" />
        </mxCell>
        <mxCell id="kUE7Anu8ZaF_NScLpF4x-23" value="" style="curved=1;endArrow=classic;html=1;rounded=0;exitX=0.5;exitY=1;exitDx=0;exitDy=0;entryX=0.5;entryY=0;entryDx=0;entryDy=0;" edge="1" parent="1" source="kUE7Anu8ZaF_NScLpF4x-2" target="kUE7Anu8ZaF_NScLpF4x-12">
          <mxGeometry width="50" height="50" relative="1" as="geometry">
            <mxPoint x="390" y="400" as="sourcePoint" />
            <mxPoint x="440" y="350" as="targetPoint" />
            <Array as="points" />
          </mxGeometry>
        </mxCell>
        <mxCell id="kUE7Anu8ZaF_NScLpF4x-24" value="" style="curved=1;endArrow=classic;html=1;rounded=0;exitX=0.5;exitY=1;exitDx=0;exitDy=0;entryX=0.5;entryY=0;entryDx=0;entryDy=0;" edge="1" parent="1" source="kUE7Anu8ZaF_NScLpF4x-8" target="kUE7Anu8ZaF_NScLpF4x-20">
          <mxGeometry width="50" height="50" relative="1" as="geometry">
            <mxPoint x="195" y="330" as="sourcePoint" />
            <mxPoint x="185" y="360" as="targetPoint" />
            <Array as="points" />
          </mxGeometry>
        </mxCell>
        <mxCell id="kUE7Anu8ZaF_NScLpF4x-25" value="Compilation into object files" style="rounded=0;whiteSpace=wrap;html=1;" vertex="1" parent="1">
          <mxGeometry x="680" y="80" width="120" height="60" as="geometry" />
        </mxCell>
        <mxCell id="kUE7Anu8ZaF_NScLpF4x-26" value="Linking" style="rounded=0;whiteSpace=wrap;html=1;" vertex="1" parent="1">
          <mxGeometry x="680" y="390" width="120" height="60" as="geometry" />
        </mxCell>
        <mxCell id="kUE7Anu8ZaF_NScLpF4x-27" value="" style="endArrow=classic;html=1;rounded=0;entryX=0;entryY=0.5;entryDx=0;entryDy=0;" edge="1" parent="1" target="kUE7Anu8ZaF_NScLpF4x-21">
          <mxGeometry width="50" height="50" relative="1" as="geometry">
            <mxPoint x="480" y="380" as="sourcePoint" />
            <mxPoint x="500" y="390" as="targetPoint" />
          </mxGeometry>
        </mxCell>
        <mxCell id="kUE7Anu8ZaF_NScLpF4x-28" value="" style="endArrow=classic;html=1;rounded=0;entryX=0;entryY=0.5;entryDx=0;entryDy=0;" edge="1" parent="1" target="kUE7Anu8ZaF_NScLpF4x-22">
          <mxGeometry width="50" height="50" relative="1" as="geometry">
            <mxPoint x="470" y="450" as="sourcePoint" />
            <mxPoint x="540" y="420" as="targetPoint" />
          </mxGeometry>
        </mxCell>
        <mxCell id="kUE7Anu8ZaF_NScLpF4x-30" value="" style="endArrow=classic;html=1;rounded=0;exitX=0.5;exitY=1;exitDx=0;exitDy=0;entryX=0;entryY=0;entryDx=0;entryDy=0;" edge="1" parent="1" source="kUE7Anu8ZaF_NScLpF4x-12" target="kUE7Anu8ZaF_NScLpF4x-38">
          <mxGeometry width="50" height="50" relative="1" as="geometry">
            <mxPoint x="450" y="550" as="sourcePoint" />
            <mxPoint x="250" y="620" as="targetPoint" />
          </mxGeometry>
        </mxCell>
        <mxCell id="kUE7Anu8ZaF_NScLpF4x-31" value="" style="endArrow=classic;html=1;rounded=0;exitX=0.5;exitY=1;exitDx=0;exitDy=0;entryX=1;entryY=0;entryDx=0;entryDy=0;" edge="1" parent="1" source="kUE7Anu8ZaF_NScLpF4x-20" target="kUE7Anu8ZaF_NScLpF4x-38">
          <mxGeometry width="50" height="50" relative="1" as="geometry">
            <mxPoint x="185" y="530" as="sourcePoint" />
            <mxPoint x="460" y="620" as="targetPoint" />
          </mxGeometry>
        </mxCell>
        <mxCell id="kUE7Anu8ZaF_NScLpF4x-38" value="" style="ellipse;whiteSpace=wrap;html=1;aspect=fixed;" vertex="1" parent="1">
          <mxGeometry x="260" y="510" width="250" height="250" as="geometry" />
        </mxCell>
        <mxCell id="kUE7Anu8ZaF_NScLpF4x-32" value="" style="group" vertex="1" connectable="0" parent="1">
          <mxGeometry x="250" y="550" width="263.35" height="176.3" as="geometry" />
        </mxCell>
        <mxCell id="kUE7Anu8ZaF_NScLpF4x-35" value="&lt;b&gt;f?&lt;/b&gt;" style="rounded=0;whiteSpace=wrap;html=1;" vertex="1" parent="kUE7Anu8ZaF_NScLpF4x-32">
          <mxGeometry x="30.42" y="96.30000000000001" width="95" height="30" as="geometry" />
        </mxCell>
        <mxCell id="kUE7Anu8ZaF_NScLpF4x-36" value="&lt;b&gt;b?&lt;/b&gt;" style="rounded=0;whiteSpace=wrap;html=1;" vertex="1" parent="kUE7Anu8ZaF_NScLpF4x-32">
          <mxGeometry x="30.42" y="146.3" width="95" height="30" as="geometry" />
        </mxCell>
        <mxCell id="kUE7Anu8ZaF_NScLpF4x-39" value="&lt;b&gt;f&lt;/b&gt;" style="rounded=0;whiteSpace=wrap;html=1;" vertex="1" parent="1">
          <mxGeometry x="382.92" y="640" width="100" height="40" as="geometry" />
        </mxCell>
        <mxCell id="kUE7Anu8ZaF_NScLpF4x-40" value="&lt;b&gt;b&lt;/b&gt;" style="rounded=0;whiteSpace=wrap;html=1;" vertex="1" parent="1">
          <mxGeometry x="382.92" y="690" width="100" height="40" as="geometry" />
        </mxCell>
        <mxCell id="kUE7Anu8ZaF_NScLpF4x-41" value="" style="curved=1;endArrow=classic;html=1;rounded=0;exitX=0.5;exitY=0;exitDx=0;exitDy=0;entryX=0.5;entryY=0;entryDx=0;entryDy=0;" edge="1" parent="1" source="kUE7Anu8ZaF_NScLpF4x-35" target="kUE7Anu8ZaF_NScLpF4x-39">
          <mxGeometry width="50" height="50" relative="1" as="geometry">
            <mxPoint x="450" y="550" as="sourcePoint" />
            <mxPoint x="500" y="500" as="targetPoint" />
            <Array as="points">
              <mxPoint x="390" y="600" />
            </Array>
          </mxGeometry>
        </mxCell>
        <mxCell id="kUE7Anu8ZaF_NScLpF4x-42" value="" style="curved=1;endArrow=classic;html=1;rounded=0;exitX=0.5;exitY=1;exitDx=0;exitDy=0;entryX=0.5;entryY=1;entryDx=0;entryDy=0;" edge="1" parent="1" source="kUE7Anu8ZaF_NScLpF4x-36" target="kUE7Anu8ZaF_NScLpF4x-40">
          <mxGeometry width="50" height="50" relative="1" as="geometry">
            <mxPoint x="345" y="596" as="sourcePoint" />
            <mxPoint x="450" y="590" as="targetPoint" />
            <Array as="points">
              <mxPoint x="370" y="750" />
            </Array>
          </mxGeometry>
        </mxCell>
        <mxCell id="kUE7Anu8ZaF_NScLpF4x-46" value="&lt;b&gt;main&lt;/b&gt;" style="rounded=0;whiteSpace=wrap;html=1;" vertex="1" parent="1">
          <mxGeometry x="382.92" y="590" width="110" height="20" as="geometry" />
        </mxCell>
        <mxCell id="kUE7Anu8ZaF_NScLpF4x-47" value="Executable" style="rounded=0;whiteSpace=wrap;html=1;strokeColor=none;" vertex="1" parent="1">
          <mxGeometry x="327.5" y="530" width="115" height="40" as="geometry" />
        </mxCell>
      </root>
    </mxGraphModel>
  </diagram>
</mxfile>
